<svg id="Line-Expand" enable-background="new 0 0 64 64" height="512" viewBox="0 0 64 64" width="512" xmlns="http://www.w3.org/2000/svg" fill="#00aeef"><path d="m62.737 44.324-10.863-11.851-3.036-8.5c-1.276-3.573-4.682-5.973-8.476-5.973h-2.718c2.044-1.651 3.356-4.174 3.356-7 0-4.962-4.038-9-9-9s-9 4.038-9 9c0 2.826 1.312 5.349 3.356 7h-2.718c-3.794 0-7.2 2.4-8.476 5.973l-3.036 8.5-10.863 11.851c-.362.395-.348 1.004.03 1.383l4.66 4.66c-2.302.84-3.953 3.044-3.953 5.633 0 3.309 2.691 6 6 6h48c3.309 0 6-2.691 6-6 0-2.589-1.651-4.793-3.953-5.633l4.66-4.66c.378-.378.392-.988.03-1.383zm-37.737-33.324c0-3.86 3.14-7 7-7s7 3.14 7 7-3.14 7-7 7-7-3.14-7-7zm-14.586 39 9.293-9.293c.104-.103.183-.228.233-.365l2.06-5.666v7.064l-4.588 8.26zm-6.414 6c0-2.206 1.794-4 4-4h32v8h-32c-2.206 0-4-1.794-4-4zm56 0c0 2.206-1.794 4-4 4h-14v-8h14c2.206 0 4 1.794 4 4zm-13.412-6-4.588-8.259v-7.064l2.06 5.666c.05.137.129.262.233.365l9.293 9.292zm9.412-.414-10.136-10.136-3.924-10.792c-.166-.456-.638-.727-1.113-.643-.478.085-.827.5-.827.985v13c0 .17.043.337.126.486l4.175 7.514h-24.602l4.175-7.514c.083-.149.126-.316.126-.486v-13c0-.485-.349-.9-.827-.985-.475-.084-.947.187-1.113.643l-3.924 10.792-10.136 10.136-4.616-4.616 10.353-11.294c.09-.099.16-.214.205-.339l3.104-8.691c.992-2.779 3.641-4.646 6.592-4.646h16.725c2.951 0 5.6 1.867 6.592 4.646l3.104 8.691c.045.125.115.241.205.339l10.352 11.294z"/><path d="m36.95 28.05c-1.17-1.17-3.073-1.168-4.243 0l-.707.707-.707-.708c-1.171-1.17-3.073-1.168-4.243 0-1.169 1.17-1.169 3.073 0 4.243l4.243 4.243c.195.195.451.293.707.293s.512-.098.707-.293l4.243-4.243c1.169-1.169 1.169-3.072 0-4.242zm-1.414 2.829-3.536 3.536-3.535-3.536c-.39-.39-.39-1.024 0-1.414.195-.195.451-.292.708-.292.256 0 .512.097.707.292l1.414 1.414c.391.391 1.023.391 1.414 0l1.414-1.414c.39-.39 1.024-.391 1.415 0 .388.389.388 1.024-.001 1.414z"/><path d="m35 46h2v2h-2z"/><path d="m31 46h2v2h-2z"/><path d="m27 46h2v2h-2z"/></svg>