<svg id="Layer_1" enable-background="new 0 0 512.014 512.014" height="512" viewBox="0 0 512.014 512.014" width="512" xmlns="http://www.w3.org/2000/svg" fill="#00aeef"><g><path d="m479.942 100.196-30.684-29.539c-20.394-19.626-51.952-25.315-80.396-14.488-13.034 4.96-24.177 12.821-32.964 22.91-17.465-16.281-34.344-20.24-50.741-24.076-22.738-5.318-46.25-10.818-78.641-51.254-2.791-3.484-7.554-4.697-11.673-2.969-4.118 1.727-6.591 5.975-6.061 10.409 5.8 48.484 18.156 84.752 38.481 112.351-19.759 1.625-42.757.559-72.408-9.12-4.021-1.313-8.433.046-11.018 3.395-2.585 3.348-2.784 7.96-.498 11.518 24.851 38.667 49.606 63.55 77.906 78.307 10.271 5.356 20.981 9.299 32.193 11.862-20.362 32.843-50.159 52.487-90.719 59.877-3.922.714-7.045 3.69-7.948 7.573s.587 7.932 3.792 10.303c21.818 16.146 48.464 24.967 73.03 24.967 8.933 0 17.592-1.167 25.642-3.572 18.67-5.578 32.566-17.26 40.529-33.973 29.096-2.633 56.958-6.501 80.192-18.985 29.498-15.849 45.601-42.577 49.229-81.716 1.956-21.204 6.373-36.391 13.889-47.78 9.131-13.781 19.264-19.947 30.993-18.84 4.232.402 8.254-1.921 10.026-5.786 1.775-3.864.912-8.426-2.151-11.374zm-265.981-58.973c25.89 23.724 47.272 28.724 66.64 33.254 16.32 3.817 29.545 6.915 43.912 21.397-3.86 7.451-6.751 15.61-8.552 24.332-21.685-6.822-40.944-3.672-61.146-.368-1.424.233-2.861.467-4.308.701-17.332-19.696-29.235-45.425-36.546-79.316zm210.432 83.942c-9.41 14.26-14.851 32.364-17.121 56.97-6.329 68.287-54.677 77.801-117.224 83.143-3.865.33-7.191 2.866-8.532 6.506-5.149 13.973-15.244 23.294-30.004 27.704-17.851 5.334-40.449 2.625-60.933-6.571 36.773-12.148 65.003-35.699 84.188-70.261 3.637.261 7.32.406 11.063.406 13.306 0 27.297-1.646 42.062-4.928 5.391-1.198 8.79-6.54 7.592-11.932-1.199-5.391-6.544-8.792-11.932-7.592-61.954 13.769-106.285-3.138-148.091-58.126 34.956 6.884 60.907 2.64 82.582-.906 22.585-3.695 40.424-6.613 61.709 3.599 0-.003.001-.005.001-.007 1.085.521 2.279.863 3.552.962 5.533.418 10.317-3.692 10.742-9.198 2.237-28.886 17.52-50.78 41.93-60.07 21.245-8.085 44.567-4.08 59.413 10.206l16.345 15.735c-9.022 3.785-18.565 11.114-27.342 24.36z"/><path d="m395.974 353.447-82.926 41.087c-3.018-12.267-12.298-22.68-25.261-26.52l-38.538-11.424c-27.824-8.244-64.439-15.011-100.902 5.999-2.273 1.311-4.313 2.62-6.113 3.775-6.885 4.42-11.111 7.112-23.081 7.21-3.955-9.552-13.374-16.29-24.34-16.29h-39.473c-14.521 0-26.333 11.811-26.333 26.328v91.588c0 14.517 11.813 26.328 26.333 26.328h39.473c13.871 0 25.263-10.78 26.255-24.399 17.229.279 27.554 1.677 48.989 7.977 12.172 3.58 19.96 5.854 27.738 8.125 7.804 2.279 15.598 4.554 27.813 8.146.067.02.134.039.202.057 4.468 1.212 8.57 2.404 12.537 3.557 13.133 3.816 24.168 7.023 35.676 7.023 12.984 0 26.57-4.086 44.428-15.993 4.596-3.063 5.837-9.272 2.773-13.868-3.063-4.595-9.274-5.837-13.867-2.773-25.945 17.297-36.919 14.107-63.43 6.405-4.021-1.168-8.178-2.376-12.776-3.625-12.173-3.58-19.957-5.853-27.75-8.128-7.767-2.268-15.545-4.539-27.703-8.114-23.767-6.985-35.53-8.502-54.552-8.791v-63.586c16.515-.486 24.328-5.492 31.89-10.346 1.691-1.085 3.439-2.207 5.297-3.278 23.623-13.61 49.114-14.852 85.232-4.151l38.539 11.424c8.81 2.61 13.893 11.864 11.342 20.631-.005.016-.01.033-.015.049-2.581 8.752-11.833 13.794-20.648 11.236l-55.097-15.959c-5.307-1.539-10.851 1.518-12.387 6.823s1.518 10.851 6.823 12.387l55.092 15.958c17.862 5.184 36.571-3.877 43.826-20.466l93.819-46.484c7.455-3.7 17.561-3.289 22.466 4.664 4.392 7.105 1.96 16.551-5.662 21.975l-41.372 29.48c-4.498 3.205-5.546 9.449-2.341 13.947 1.951 2.738 5.028 4.198 8.152 4.198 2.008 0 4.034-.603 5.794-1.857l41.367-29.477c16.324-11.616 21.084-32.588 11.079-48.774-9.873-16.009-30.217-21.086-48.368-12.074zm-294.828 121.753c0 3.43-2.9 6.328-6.333 6.328h-39.473c-3.433 0-6.333-2.897-6.333-6.328v-91.588c0-3.489 2.841-6.328 6.333-6.328h39.473c3.492 0 6.333 2.839 6.333 6.328z"/><path d="m345.073 452.675c-4.956 2.437-7 8.429-4.563 13.386 1.739 3.538 5.289 5.591 8.982 5.591 1.48 0 2.984-.331 4.403-1.028l.058-.028c4.956-2.437 6.971-8.415 4.534-13.372-2.435-4.957-8.46-6.982-13.414-4.549z"/></g></svg>