<svg id="Capa_1" enable-background="new 0 0 511.994 511.994" height="512" viewBox="0 0 511.994 511.994" width="512" xmlns="http://www.w3.org/2000/svg" fill="#00aeef"><g><path d="m5.54 147.419 39.71 22.929c5.851 3.379 10.449 8.623 12.949 14.766 5.949 14.615 16.331 26.519 30.025 34.425l96.768 55.869c5.386 3.11 11.652 3.927 17.638 2.322 6.477-1.736 11.8-6.089 14.794-12.098v35.158c-3.233-2.401-6.926-4.193-10.934-5.266-8.348-2.235-17.062-1.083-24.543 3.242-6.748 3.901-9.064 12.57-5.164 19.326l32.707 56.65c2.071 3.588 6.659 4.817 10.245 2.745 3.587-2.071 4.816-6.658 2.745-10.245l-32.274-55.9c3.834-1.978 8.208-2.452 12.406-1.328 4.475 1.198 8.214 4.066 10.53 8.078l5.288 9.158c1.697 2.939 5.158 4.373 8.436 3.495 3.279-.879 5.559-3.85 5.559-7.245 0-10.531 0-73.895 0-86.631 0-4.545 3.698-8.244 8.244-8.244s8.244 3.698 8.244 8.244v70.574c0 4.142 3.358 7.5 7.5 7.5s7.5-3.358 7.5-7.5v-80.745c0-4.595 3.561-8.46 7.937-8.616 2.271-.072 4.407.738 6.031 2.305 1.625 1.568 2.521 3.675 2.521 5.933v81.122c0 4.142 3.357 7.5 7.5 7.5s7.5-3.358 7.5-7.5v-70.574c0-4.545 3.698-8.244 8.244-8.244s8.244 3.698 8.244 8.244v70.574c0 4.142 3.357 7.5 7.5 7.5s7.5-3.358 7.5-7.5v-49.54c0-4.545 3.698-8.244 8.244-8.244s8.244 3.698 8.244 8.244v111.738c0 12.447-4.026 24.208-11.645 34.01-6.104 7.854-9.468 17.728-9.469 27.801l-.003 41.942h-68.721l-.003-41.952c-.001-10.101-3.338-19.939-9.396-27.702-1.332-1.707-2.577-3.51-3.7-5.36-2.149-3.54-6.761-4.668-10.303-2.518-3.541 2.149-4.668 6.763-2.518 10.303 1.426 2.348 3.006 4.637 4.696 6.803 4.011 5.14 6.221 11.702 6.222 18.475l.003 45.865c0 6.112 4.973 11.085 11.085 11.085h76.55c6.112 0 11.085-4.973 11.085-11.085l.003-45.855c.001-6.756 2.242-13.361 6.312-18.597 9.683-12.459 14.801-27.403 14.801-43.215v-111.737c0-13.333-11.267-24.022-24.683-23.199l30.447-17.578c-.463 4.001-.168 8.095.906 12.102 2.239 8.346 7.595 15.318 15.08 19.634 6.74 3.885 15.41 1.575 19.318-5.191l26.075-45.164c2.071-3.587.842-8.174-2.745-10.245-3.589-2.072-8.175-.842-10.245 2.745l-25.643 44.414c-3.631-2.333-6.227-5.883-7.353-10.081-1.2-4.474-.586-9.146 1.729-13.157l5.288-9.158c1.697-2.94 1.209-6.653-1.191-9.054-2.4-2.4-6.11-2.89-9.054-1.192l-53.529 30.905c-3.622-5.241-9.34-8.928-15.932-9.84l47.312-27.316c3.587-2.071 4.816-6.658 2.745-10.245-2.07-3.587-6.66-4.816-10.245-2.745l-59.98 34.63c-4.337-3.488-9.711-5.284-15.363-5.076-2.405.085-4.709.535-6.865 1.295.631-1.932 1.931-3.539 3.71-4.567l9.124-5.268c.004-.002.007-.004.011-.006l61.119-35.287c3.587-2.071 4.816-6.658 2.745-10.245-2.07-3.588-6.659-4.816-10.245-2.745l-61.119 35.287c-3.908 2.269-8.98.934-11.262-3.018-2.048-3.547-1.151-8 1.928-10.509.019-.015.037-.031.056-.046.322-.258.667-.494 1.034-.706 17.255-9.963 40.807-23.56 61.119-35.287 3.587-2.071 4.816-6.658 2.745-10.245-2.07-3.588-6.66-4.817-10.245-2.745l-42.902 24.77c-3.935 2.272-8.987.92-11.262-3.018-2.277-3.947-.929-8.983 3.018-11.262l96.768-55.869c10.78-6.224 22.978-8.617 35.275-6.921 9.858 1.361 20.087-.665 28.812-5.7l36.323-20.969 34.36 59.515-36.33 20.978c-8.746 5.051-15.598 12.86-19.292 21.989-1.173 2.899-2.599 5.713-4.237 8.364-.098.159-.651 1.121-5.374 9.302-2.071 3.587-.842 8.174 2.745 10.245 3.588 2.072 8.175.842 10.245-2.745l5.204-9.014c2.057-3.34 3.847-6.881 5.321-10.525 2.446-6.044 7.024-11.239 12.889-14.626l39.72-22.935c5.293-3.057 7.113-9.85 4.057-15.144l-38.274-66.294c-3.058-5.292-9.85-7.112-15.144-4.058l-39.712 22.926c-5.852 3.377-12.692 4.737-19.263 3.832-15.629-2.153-31.13.884-44.825 8.79l-96.768 55.869c-11.549 6.668-15.169 21.769-7.75 32.976l-30.448-17.579c3.697-1.6 7.095-3.901 10.028-6.836 6.108-6.111 9.469-14.236 9.464-22.875-.004-7.794-6.354-14.136-14.154-14.136h-49.762c-4.142 0-7.5 3.358-7.5 7.5s3.358 7.5 7.5 7.5h48.899c-.206 4.311-1.981 8.334-5.053 11.408-3.274 3.276-7.628 5.081-12.26 5.081h-10.575c-3.395 0-6.366 2.28-7.245 5.559-.878 3.279.555 6.739 3.495 8.436l53.529 30.905c-2.728 5.757-3.062 12.552-.557 18.717l-47.312-27.315c-3.588-2.072-8.174-.843-10.245 2.745-2.071 3.587-.842 8.174 2.745 10.245l59.981 34.63c-.66 4.269-.122 8.569 1.552 12.518-5.082-2.488-10.698-2.926-15.754-1.679l-54.022-31.19c-3.587-2.072-8.174-.842-10.245 2.745s-.842 8.174 2.745 10.245l47.906 27.659c-2.56 3.734-4.06 8.25-4.06 13.11v3.585c-7.687-4.438-36.451-21.045-52.091-30.075-3.588-2.072-8.174-.842-10.245 2.745s-.842 8.174 2.745 10.245l42.902 24.77c3.937 2.273 5.29 7.325 3.018 11.262-2.278 3.946-7.315 5.296-11.262 3.018l-96.768-55.869c-10.78-6.224-18.952-15.591-23.632-27.089-3.75-9.215-10.619-17.064-19.341-22.102l-36.322-20.973 34.361-59.515 36.333 20.974c8.748 5.05 18.938 7.077 28.689 5.713 3.094-.434 6.242-.604 9.363-.513.162.005-.572.003 13.727.003 4.142 0 7.5-3.358 7.5-7.5s-3.358-7.5-7.5-7.5h-13.395c-3.923-.111-7.883.11-11.774.654-6.457.905-13.244-.463-19.111-3.849l-39.722-22.93c-5.292-3.056-12.087-1.234-15.142 4.058l-38.275 66.294c-3.056 5.294-1.236 12.087 4.057 15.144z"/></g></svg>